<?xml version="1.0" encoding="UTF-8" standalone="no"?>
<svg id="a02257e8-5dd7-45a0-b624-c586cf0fa49a" xmlns="http://www.w3.org/2000/svg" data-name="Layer 1" height="684" width="918.57" viewBox="0 0 918.57304 684">
 <title>contact details</title>
 <circle cy="328" cx="355.57" r="328" fill="#f2f2f2"/>
 <path fill="#f50057" d="m317.27 229.42l-6.7918 54.922c8.3365 16.315 17.166 34.863 25.587 54.87l15.994-82.816 0.80831 0.73749c-11.7-11.83-24-21.46-36.42-28.37z" transform="translate(-140.71 -108)"/>
 <path fill="#f50057" d="m309.01 281.48l6.5796-53.201c-13.977-7.6293-28.097-11.798-41.675-11.723-0.70641 0.00393-1.4043 0.02827-2.1011 0.05494 2.73 4.17 18.57 28.74 37.2 64.87z" transform="translate(-140.71 -108)"/>
 <path fill="#f50057" d="m417.71 367.17l0.73211 0.9879q-3.6458-11.087-8.037-21.722l-41.247 92.402-0.35238-0.43813q1.5656 6.8193 2.885 13.507z" transform="translate(-140.71 -108)"/>
 <path fill="#f50057" d="m389.78 305.77l0.77948 0.88a258.75 258.75 0 0 0 -36.883 -48.686l-16.3 84.394q11.711 28.181 20.183 55.018z" transform="translate(-140.71 -108)"/>
 <path fill="#f50057" d="m207.04 301.44a216.05 216.05 0 0 0 1.1474 43.531l143.86 40.4c-5.2117-15.42-10.821-30.011-16.402-43.391l-128.43-39.32z" transform="translate(-140.71 -108)"/>
 <path fill="#f50057" d="m210.79 361.7l-0.196-1.2175 145.96 38.77q-1.7787-5.7181-3.642-11.307l-144.38-40.54-0.18769-1.2178q0.97 7.63 2.45 15.52z" transform="translate(-140.71 -108)"/>
 <path fill="#f50057" d="m409.08 344.13l0.75571 0.93964a309 309 0 0 0 -18.597 -37.271l-32.66 92.85q5.5478 17.927 9.5934 35.117z" transform="translate(-140.71 -108)"/>
 <path fill="#f50057" d="m378.36 503.34c1.4897 26.511-0.44 51.001-5.7895 73.195 11.339-16.231 55.497-83.959 55.487-154.19z" transform="translate(-140.71 -108)"/>
 <path fill="#f50057" d="m229.09 417.94a298.93 298.93 0 0 0 20.388 34.431l-0.13722-1.3391 127.18 49.893a371.63 371.63 0 0 0 -5.5732 -44.189z" transform="translate(-140.71 -108)"/>
 <path fill="#f50057" d="m307.72 282.17c-20.163-39.082-37.009-64.492-37.252-64.856l0.46552-0.66962c-20.607 1.0781-36.938 12.153-48.013 30.351z" transform="translate(-140.71 -108)"/>
 <path fill="#f50057" d="m372.35 455.36c0.26231 1.3845 0.53258 2.7735 0.77906 4.1492a369.22 369.22 0 0 1 4.993 39.866l49.226-80.224 0.69374 0.98637a146.38 146.38 0 0 0 -4.9731 -36.609q-1.9161-7.0309-4.1506-13.915z" transform="translate(-140.71 -108)"/>
 <path fill="#f50057" d="m334.53 339.31c-8.3393-19.774-17.071-38.1-25.313-54.224l-86.745-35.982-0.1093-1.1921c-8.1974 13.867-13.405 31.742-15.214 52.399z" transform="translate(-140.71 -108)"/>
 <path fill="#f50057" d="m376.66 503.28-126.25-49.53c45.3 66.02 114.84 122.67 119.29 126.26 6.59-24.51 8.41-50.54 6.96-76.73z" transform="translate(-140.71 -108)"/>
 <path fill="#f50057" d="m370.41 454.25l0.04408-0.08115a501.54 501.54 0 0 0 -13.116 -52.37l-146.31-38.86q2.0542 10.675 5.0565 21.734a179.71 179.71 0 0 0 11.671 30.564z" transform="translate(-140.71 -108)"/>
 <path fill="#f50057" d="m563.92 460.94l-40.261 37.968c-3.9854 17.883-9.0147 37.8-15.29 58.58l65.14-53.583 0.15218 1.0836c-1.4598-16.571-4.7906-31.835-9.9523-45.083z" transform="translate(-140.71 -108)"/>
 <path fill="#f50057" d="m524.35 495.77l39-36.778c-5.899-14.791-14.116-27.007-24.621-35.61-0.54657-0.44753-1.0996-0.87391-1.6533-1.2978-0.56 4.96-4.03 33.99-12.73 73.69z" transform="translate(-140.71 -108)"/>
 <path fill="#f50057" d="m553.42 631.1l-0.06623 1.2278q4.2635-10.864 7.6648-21.856l-90.703 44.859 0.008-0.5622q-3.1436 6.2507-6.3929 12.243z" transform="translate(-140.71 -108)"/>
 <path fill="#f50057" d="m571.07 566l0.03908 1.1749a258.75 258.75 0 0 0 2.6458 -61.021l-66.382 54.603q-8.9551 29.174-19.547 55.247z" transform="translate(-140.71 -108)"/>
 <path fill="#f50057" d="m433.09 446.12a216.05 216.05 0 0 0 -26.881 34.259l85.032 122.87c5.8212-15.2 10.808-30.016 15.043-43.88l-73.836-112.2z" transform="translate(-140.71 -108)"/>
 <path fill="#f50057" d="m397.54 494.92l0.62558-1.0627 87.689 122.96q2.2772-5.5385 4.4068-11.032l-85.35-123.33 0.63217-1.0576q-4.12 6.5-8.01 13.52z" transform="translate(-140.71 -108)"/>
 <path fill="#f50057" d="m561.47 607.86l-0.01727 1.2057a309 309 0 0 0 9.4484 -40.567l-84.369 50.68q-7.1613 17.346-15.01 33.166z" transform="translate(-140.71 -108)"/>
 <path fill="#f50057" d="m436.26 710.89c-15.762 21.368-32.868 38.999-51.144 52.682 19.086-5.2689 96.294-29.268 141.08-83.363z" transform="translate(-140.71 -108)"/>
 <path fill="#f50057" d="m375.76 549.9a298.92 298.92 0 0 0 -6.258 39.523l0.74839-1.1189 66.13 119.54a371.63 371.63 0 0 0 23.89 -37.59z" transform="translate(-140.71 -108)"/>
 <path fill="#f50057" d="m522.91 495.48c9.3978-42.961 12.63-73.276 12.675-73.711l0.78563-0.21882c-16.559-12.313-36.2-14.2-56.338-7.2477z" transform="translate(-140.71 -108)"/>
 <path fill="#f50057" d="m462.23 670.09c-0.681 1.2336-1.3588 2.4758-2.0464 3.6926a369.22 369.22 0 0 1 -21.581 33.889l89.082-30.39-0.09482 1.2022a146.38 146.38 0 0 0 19.519 -31.368q3.0087-6.6373 5.6782-13.364z" transform="translate(-140.71 -108)"/>
 <path fill="#f50057" d="m507.12 556.59c6.1892-20.548 11.152-40.232 15.089-57.908l-43.86-83.041 0.67614-0.98783c-15.158 5.4518-30.57 15.897-45.139 30.653z" transform="translate(-140.71 -108)"/>
 <path fill="#f50057" d="m434.99 709.75l-65.643-118.67c-7.2228 79.744 10.211 167.73 11.344 173.33 20.71-14.67 38.7-33.56 54.3-54.66z" transform="translate(-140.71 -108)"/>
 <path fill="#f50057" d="m461.45 668.01l0.08572-0.03439a501.54 501.54 0 0 0 23.3 -48.7l-87.91-123.27q-5.2264 9.5317-9.9679 19.964a179.71 179.71 0 0 0 -10.505 30.984z" transform="translate(-140.71 -108)"/>
 <path fill="#f50057" d="m227.52 462.83l10.517 54.332c12.971 12.939 27.102 27.85 41.294 44.274l-10.387-83.704 0.99669 0.45153c-14.778-7.638-29.454-12.996-43.407-15.728z" transform="translate(-140.71 -108)"/>
 <path fill="#f50057" d="m235.76 514.9l-10.187-52.63c-15.651-2.9354-30.368-2.5351-43.258 1.7329-0.6706 0.22208-1.3268 0.46094-1.9813 0.7017 3.88 3.13 26.55 21.6 55.43 50.2z" transform="translate(-140.71 -108)"/>
 <path fill="#f50057" d="m365.62 562.8l1.0016 0.71324q-6.8942-9.4172-14.358-18.174l-10.66 100.62-0.47055-0.30775q3.5967 6.0014 6.9187 11.954z" transform="translate(-140.71 -108)"/>
 <path fill="#f50057" d="m320.08 513.03l1.0133 0.596a258.75 258.75 0 0 0 -50.125 -34.901l10.584 85.3q19.848 23.182 36.2 46.085z" transform="translate(-140.71 -108)"/>
 <path fill="#f50057" d="m144.96 565.4a216.05 216.05 0 0 0 14.546 41.044l149.3-6.0484c-9.7228-13.054-19.567-25.197-29.01-36.196l-134.29 2.3028z" transform="translate(-140.71 -108)"/>
 <path fill="#f50057" d="m167.15 621.55l-0.56271-1.0973 150.8-8.2444q-3.459-4.8883-6.9586-9.6277l-149.86 6.07-0.55491-1.1001q3.28 6.96 7.13 14z" transform="translate(-140.71 -108)"/>
 <path fill="#f50057" d="m350.3 543.55l1.0092 0.66a309 309 0 0 0 -29.207 -29.697l-2.3581 98.393q10.817 15.334 19.978 30.432z" transform="translate(-140.71 -108)"/>
 <path fill="#f50057" d="m370.29 704.46c9.6111 24.752 15.346 48.639 17.118 71.401 5.7668-18.941 26.828-97.002 5.1113-163.79z" transform="translate(-140.71 -108)"/>
 <path fill="#f50057" d="m201.93 669.38a298.93 298.93 0 0 0 30.03 26.44l-0.5444-1.2311 136.37 8.1404a371.63 371.63 0 0 0 -18.959 -40.302z" transform="translate(-140.71 -108)"/>
 <path fill="#f50057" d="m234.74 515.96c-31.256-30.936-55.131-49.894-55.475-50.165l0.23575-0.78072c-19.265 7.395-31.373 22.975-36.281 43.705z" transform="translate(-140.71 -108)"/>
 <path fill="#f50057" d="m349.74 660.69c0.67741 1.2356 1.3638 2.473 2.0234 3.7052a369.22 369.22 0 0 1 17.071 36.37l22.019-91.511 0.96465 0.72363a146.38 146.38 0 0 0 -16.045 -33.279q-3.9955-6.0944-8.2484-11.95z" transform="translate(-140.71 -108)"/>
 <path fill="#f50057" d="m277.9 562.01c-14.043-16.228-28.012-30.957-40.834-43.744l-93.62-7.4075-0.47241-1.0999c-3.5097 15.722-2.9376 34.331 1.727 54.536z" transform="translate(-140.71 -108)"/>
 <path fill="#f50057" d="m368.65 704.93l-135.37-8.081c63.488 48.79 147.14 81.164 152.47 83.204-1.31-25.34-7.62-50.66-17.1-75.12z" transform="translate(-140.71 -108)"/>
 <path fill="#f50057" d="m347.56 660.23l0.01684-0.09081a501.54 501.54 0 0 0 -28.661 -45.751l-151.17 8.27q5.2531 9.517 11.527 19.107a179.71 179.71 0 0 0 20.546 25.46z" transform="translate(-140.71 -108)"/>
 <path fill="#2f2e41" d="m242.29 792s212-84 468 0" transform="translate(-140.71 -108)"/>
 <path fill="#ffb9b9" d="m396.42 727.55a66.756 66.756 0 0 0 0.83191 6.7062s18.243 12.405 19.703-1.4595c0.94864-9.0341-1.1968-13.113-2.8168-14.857l-0.02557-0.02783a5.6175 5.6175 0 0 1 -1.5361 -3.805v-16.33l-16.04 5.11 0.72973 13.865c-1.08 2.89-1.1 7.19-0.83 10.81z" transform="translate(-140.71 -108)"/>
 <path opacity=".05" d="m396.42 727.55a66.756 66.756 0 0 0 0.83191 6.7062s18.243 12.405 19.703-1.4595c0.94864-9.0341-1.1968-13.113-2.8168-14.857a4.359 4.359 0 0 0 -4.4806 -0.467c-2.9189-1.299-6.1298 0.86838-8.786 3.6705a25.797 25.797 0 0 0 -4.44 6.41z" transform="translate(-140.71 -108)"/>
 <path fill="#2f2e41" d="m409.65 718.93s8.027-4.3784 9.4865 15.324 2.1892 17.514 2.1892 17.514 7.2973 17.514-8.027 15.324-22.622-3.6487-21.892-12.405c0.43984-5.278 1.675-12.942 2.5869-18.198a26.758 26.758 0 0 1 6.8676 -13.891c2.66-2.8 5.87-4.96 8.78-3.67z" transform="translate(-140.71 -108)"/>
 <path fill="#ffb9b9" d="m495.38 743.98l8.3658 4.0348s26.136 4.0122 17.846-10.871a60.393 60.393 0 0 1 -5.4511 -14.081 93.794 93.794 0 0 1 -2.8941 -20.879l-22.111 3.0847c7.2105 9.6017 6.2971 25.179 5.1811 33.337-0.45 3.3-0.94 5.38-0.94 5.38z" transform="translate(-140.71 -108)"/>
 <path opacity=".05" d="m495.38 743.98l8.3658 4.0348s26.136 4.0122 17.846-10.871a60.393 60.393 0 0 1 -5.4511 -14.081c-5.0772 0.97706-8.9402 8.2857-8.9402 8.2857-4.0945 14.215-7.7777 10.662-10.884 7.2564-0.46 3.3-0.95 5.38-0.95 5.38z" transform="translate(-140.71 -108)"/>
 <path fill="#2f2e41" d="m507.69 732.73s6.517-12.325 13.746-7.1196 3.642 12.641 27.055 19.923 7.9401 22.734-6.3854 21.554-44.868-6.7453-44.868-6.7453-7.9401-22.734-4.2549-23.249 8.77 16.26 14.71-4.36z" transform="translate(-140.71 -108)"/>
 <path opacity=".3" fill="#fff" d="m541.14 764.33c9.3006 0.76637 19.08-5.4781 18.393-11.946 4.4445 7.3039-6.806 15.577-17.431 14.701-14.326-1.1804-44.868-6.7453-44.868-6.7453s-0.37365-1.0701-0.92032-2.748c0.89 0.16 30.72 5.58 44.83 6.74z" transform="translate(-140.71 -108)"/>
 <path opacity=".3" fill="#fff" d="m391.45 754.27c0.84143 6.5648 8.1227 7.9447 21.854 9.9064 6.9831 0.99759 9.2624-2.0981 9.6817-5.7616 0.45648 4.6921-0.87609 9.9384-9.6817 8.6805-15.324-2.1892-22.622-3.6487-21.892-12.405 0.01-0.13 0.03-0.28 0.04-0.42z" transform="translate(-140.71 -108)"/>
 <path fill="#fbbebe" d="m358.07 469.44l-2.4224 36.335s-1.9379 36.82 13.081 39.727 0-46.994 0-46.994v-32.944z" transform="translate(-140.71 -108)"/>
 <path fill="#3f3d56" d="m370.67 337.18-1.94 4.36s0.48447 30.522 0 32.944-6.7826 21.317-6.7826 23.255-4.8447 58.136-5.8136 61.528-5.3292 14.05-1.4534 15.503 11.143-4.3602 14.05 0 5.3292 0 5.3292-1.4534 0.96894-29.068 6.7826-36.82 11.143-25.192 12.112-28.584 2.4224-52.323 2.9068-53.292-1.9379-14.05-1.9379-14.05z" transform="translate(-140.71 -108)"/>
 <path fill="#2f2e41" d="m398.28 388.53s-5.8136 22.77-9.6894 27.13-23.255 36.82-17.441 79.938 15.99 99.32 15.99 99.32 1.4534 19.863-0.48447 25.192 8.7205 90.112 8.7205 90.112 15.019 11.627 23.255-2.9068-1.9379-31.491 0-34.397 0-55.23 0-55.23 1.4534-130.32 9.2049-124.99 31.491 95.925 31.491 95.925 10.174 34.882 9.6894 37.789 8.72 39.25 8.72 39.25 8.7205 50.385 12.112 51.354 24.224 1.4534 26.161-3.8758l-5.8136-45.54s-5.8136-51.838-8.7205-59.105-7.7515-110.46-21.801-140.98-5.3292-48.932-9.2049-56.199c0 0-2.2737-9.9837 0.532-19.304-0.01-0.01-67.4 0.4-72.73-3.48z" transform="translate(-140.71 -108)"/>
 <ellipse cy="138.1" cx="286.39" rx="40.696" ry="51.596" fill="#2f2e41"/>
 <path fill="#fbbebe" d="m510.68 306.66l-6.2981 13.565-74.609 21.801s-51.838 15.019-57.168-9.205 20.348-26.646 20.348-26.646 9.6894-6.7826 21.801-13.565c4.0502-2.2722 5.3922-5.9493 5.3825-9.8396a20.36 20.36 0 0 0 -0.32461 -3.4494 29.19 29.19 0 0 0 -0.96894 -3.8855 44.53 44.53 0 0 0 -4.0889 -8.9869s31.975-12.596 31.491-5.8136a19.282 19.282 0 0 0 0.77514 7.2477 28.53 28.53 0 0 0 2.6598 5.8766c0.54254 0.935 1.1481 1.904 1.8216 2.9311 0.87207 1.3323 1.8652 2.7518 2.9795 4.2924 6.2981 8.7205 27.13 8.7205 27.13 8.7205 16.48-1.94 29.08 16.96 29.08 16.96z" transform="translate(-140.71 -108)"/>
 <path fill="#fbbebe" d="m587.71 384.17s34.882 25.677 41.664 25.192 46.509-2.9068 37.304 6.2981-50.869 3.3913-50.869 3.3913l-38.27-24.22z" transform="translate(-140.71 -108)"/>
 <path opacity=".1" d="m447.02 267.88a27.633 27.633 0 0 1 -28.177 7.5529 44.53 44.53 0 0 0 -4.0889 -8.9869s31.975-12.596 31.491-5.8136a19.282 19.282 0 0 0 0.78 7.24z" transform="translate(-140.71 -108)"/>
 <circle cy="137.61" cx="286.15" r="27.615" fill="#fbbebe"/>
 <path fill="#3f3d56" d="m392.47 326.04s120.15-27.13 120.63-23.255 5.3292 11.627 5.3292 11.627l-28.099 31.975s3.3913 15.503-3.3913 18.894-7.7515 29.068-14.05 29.553-79.938-0.48447-80.422-4.3602 1.9379-6.2981 0-7.2671-4.8447-0.96894-2.4224-5.8136 2.4224-25.192 2.4224-25.192l-22.76-10.65s-3.1226-9.0275 2.5567-10.57 20.21-4.93 20.21-4.93z" transform="translate(-140.71 -108)"/>
 <path fill="#3f3d56" d="m514.07 313.44h4.3602s13.081 8.7205 16.472 16.472 15.503 17.925 18.41 20.832 42.633 30.522 42.149 34.397-11.627 7.7515-12.112 12.112 4.8447 6.2981 1.4534 6.2981-24.224-12.112-31.975-16.472-23.739-16.956-25.677-20.348-15.019-9.205-16.472-11.627-24.22-13.56-24.22-13.56z" transform="translate(-140.71 -108)"/>
 <circle cy="106.85" cx="245.7" r="15.503" fill="#2f2e41"/>
 <circle cy="86.503" cx="314.01" r="15.503" fill="#2f2e41"/>
 <ellipse cy="119.69" cx="290.03" rx="28.826" ry="17.683" fill="#2f2e41"/>
 <path fill="#2f2e41" d="m449.68 273.76c-13.284 5.2274-23.783 5.8476-29.868 5.5617a20.363 20.363 0 0 1 0.32459 3.4494c0.70733 0.02907 1.468 0.0436 2.277 0.0436 6.7196 0 16.758-1.1676 29.088-6.1237z" transform="translate(-140.71 -108)"/>
 <rect rx="21.433" height="252" width="421" y="310" x="497.57" fill="#3f3d56"/>
 <rect opacity=".3" height="12" width="330" y="486.75" x="542.97" fill="#f50057"/>
 <rect opacity=".3" height="12" width="330" y="455.25" x="543.18" fill="#f50057"/>
 <rect opacity=".3" height="12" width="59" y="412.25" x="814.18" fill="#f50057"/>
 <rect opacity=".3" height="12" width="216" y="380.25" x="657.18" fill="#f50057"/>
 <rect opacity=".3" height="12" width="165.21" y="518.75" x="542.97" fill="#f50057"/>
 <rect rx="10.165" height="83" width="83" y="341.25" x="543.18" fill="#f50057"/>
</svg>
